<mxfile host="app.diagrams.net" modified="2020-06-18T03:23:07.848Z" agent="5.0 (X11; Linux x86_64) AppleWebKit/537.36 (KHTML, like Gecko) Ubuntu Chromium/83.0.4103.61 Chrome/83.0.4103.61 Safari/537.36" etag="hJ7XiIE0UX5JLo5TTuJ_" version="13.2.6" type="github">
  <diagram id="QjzzoLrsMU9Z7a_fSCen" name="第 1 页">
    <mxGraphModel dx="846" dy="395" grid="1" gridSize="10" guides="1" tooltips="1" connect="1" arrows="1" fold="1" page="1" pageScale="1" pageWidth="827" pageHeight="1169" math="0" shadow="0">
      <root>
        <mxCell id="0" />
        <mxCell id="1" parent="0" />
        <mxCell id="bClf2fqCuFvqtxJv0ozL-1" value="" style="whiteSpace=wrap;html=1;aspect=fixed;" parent="1" vertex="1">
          <mxGeometry x="280" y="230" width="80" height="80" as="geometry" />
        </mxCell>
        <mxCell id="ov3JzNuLjWDxxqZ46coT-1" value="" style="whiteSpace=wrap;html=1;aspect=fixed;" vertex="1" parent="1">
          <mxGeometry x="250" y="110" width="80" height="80" as="geometry" />
        </mxCell>
      </root>
    </mxGraphModel>
  </diagram>
</mxfile>
